<svg width="40" height="40" viewBox="0 0 40 40" fill="none" xmlns="http://www.w3.org/2000/svg">
<g id="Shield 1">
<g id="Group 44032">
<g id="Group 44031">
<path id="Subtract" fill-rule="evenodd" clip-rule="evenodd" d="M2.89709 18.4946C2.89707 27.4533 9.22039 35.1663 18.005 36.9233C19.3351 37.1893 20.7048 37.1893 22.0349 36.923H22.0353C30.8197 35.166 37.1426 27.453 37.1429 18.4945V12.3898C37.1429 7.13605 32.8837 2.87708 27.6301 2.87708H12.4098C7.15607 2.87708 2.89709 7.13605 2.89709 12.3898V18.4946ZM15.3752 18.0974C15.3752 17.5103 14.8993 17.0344 14.3122 17.0344C13.7252 17.0344 13.2493 17.5103 13.2493 18.0974V23.8049C13.2493 24.392 13.7252 24.8679 14.3122 24.8679C14.8993 24.8679 15.3752 24.392 15.3752 23.8049V18.0974ZM20.0202 16.8761C20.6072 16.8761 21.0831 17.352 21.0831 17.9391V23.8052C21.0831 24.3923 20.6072 24.8682 20.0202 24.8682C19.4331 24.8682 18.9572 24.3923 18.9572 23.8052V17.9391C18.9572 17.352 19.4331 16.8761 20.0202 16.8761ZM20.0202 11.3268L20.0162 11.3268C18.7747 11.3315 17.5587 11.68 16.5032 12.3338C16.0041 12.6429 15.8501 13.2981 16.1592 13.7971C16.4683 14.2962 17.1235 14.4502 17.6226 14.1411C18.3436 13.6945 19.1741 13.4563 20.0222 13.4527C22.5865 13.4538 24.6648 15.5328 24.6648 18.0974V23.805C24.6648 24.392 25.1407 24.8679 25.7278 24.8679C26.3148 24.8679 26.7907 24.392 26.7907 23.805V18.0974C26.7907 14.3581 23.7595 11.3268 20.0202 11.3268Z" fill="#1F2124"/>
</g>
</g>
</g>
</svg>
