<?xml version="1.0" standalone="no"?>
<!DOCTYPE svg PUBLIC "-//W3C//DTD SVG 20010904//EN"
 "http://www.w3.org/TR/2001/REC-SVG-20010904/DTD/svg10.dtd">
<svg width="512" height="512" viewBox="0 0 512 512" fill="none" xmlns="http://www.w3.org/2000/svg">
    <rect width="512" height="512" rx="256" fill="white"/>
    <path fill-rule="evenodd" clip-rule="evenodd" d="M84.9707 240.945C84.9705 330.531 148.204 407.661 236.05 425.232C249.351 427.892 263.048 427.892 276.349 425.229C364.193 407.659 427.426 330.529 427.429 240.944V179.896C427.429 127.359 384.837 84.7695 332.301 84.7695H180.098C127.561 84.7695 84.9707 127.359 84.9707 179.896V240.945ZM209.752 236.972C209.752 231.102 204.993 226.343 199.122 226.343C193.252 226.343 188.493 231.102 188.493 236.972V294.048C188.493 299.919 193.252 304.678 199.122 304.678C204.993 304.678 209.752 299.919 209.752 294.048V236.972ZM256.202 224.76C262.072 224.76 266.831 229.519 266.831 235.389V294.051C266.831 299.921 262.072 304.68 256.202 304.68C250.331 304.68 245.572 299.921 245.572 294.051V235.389C245.572 229.519 250.331 224.76 256.202 224.76ZM256.202 169.271L256.162 169.272C243.747 169.318 231.586 172.804 221.031 179.341C216.041 182.433 214.501 188.984 217.592 193.975C220.683 198.966 227.235 200.506 232.225 197.414C239.436 192.949 247.741 190.566 256.222 190.53C281.865 190.541 302.648 211.332 302.648 236.977V294.053C302.648 299.924 307.407 304.683 313.278 304.683C319.148 304.683 323.907 299.924 323.907 294.053V236.977C323.907 199.585 293.595 169.271 256.202 169.271Z" fill="black"/>
</svg>
