<?xml version="1.0" standalone="no"?>
<!DOCTYPE svg PUBLIC "-//W3C//DTD SVG 20010904//EN"
 "http://www.w3.org/TR/2001/REC-SVG-20010904/DTD/svg10.dtd">
<svg version="1.0" xmlns="http://www.w3.org/2000/svg"
 width="512.000000pt" height="512.000000pt" viewBox="0 0 512.000000 512.000000"
 preserveAspectRatio="xMidYMid meet">
<metadata>
Created by potrace 1.14, written by Peter Selinger 2001-2017
</metadata>
<g transform="translate(0.000000,512.000000) scale(0.100000,-0.100000)"
fill="#000000" stroke="none">
<path d="M875 5113 c-422 -54 -766 -374 -854 -795 -19 -90 -19 -144 -20 -1753
0 -1773 -1 -1726 49 -1875 30 -90 94 -215 143 -280 144 -193 380 -347 592
-386 11 -2 43 -8 70 -13 31 -6 676 -10 1705 -10 1575 -1 1659 0 1745 18 116
24 171 43 270 92 102 52 172 104 260 195 86 88 81 82 138 177 68 110 107 215
136 362 7 33 9 640 8 1745 -3 1828 0 1703 -52 1855 -56 161 -163 322 -284 423
-31 26 -58 50 -61 53 -3 3 -39 26 -80 51 -96 59 -210 104 -324 128 -87 18
-160 19 -1751 18 -913 -1 -1673 -3 -1690 -5z"/>
</g>
</svg>
