<svg width="16" height="16" viewBox="0 0 16 16" fill="none" xmlns="http://www.w3.org/2000/svg">
<g id="expand_all">
<mask id="mask0_1210_5924" style="mask-type:alpha" maskUnits="userSpaceOnUse" x="0" y="0" width="16" height="16">
<rect id="Bounding box" width="16" height="16" fill="#D9D9D9"/>
</mask>
<g mask="url(#mask0_1210_5924)">
<path id="expand_all_2" d="M7.99999 12.7666L10.5833 10.1832C10.7167 10.0499 10.8722 9.98324 11.05 9.98324C11.2278 9.98324 11.3833 10.0499 11.5167 10.1832C11.65 10.3166 11.7167 10.4749 11.7167 10.6582C11.7167 10.8416 11.65 10.9999 11.5167 11.1332L8.94999 13.7166C8.69444 13.9721 8.37777 14.0999 7.99999 14.0999C7.62221 14.0999 7.30555 13.9721 7.04999 13.7166L4.46666 11.1332C4.33332 10.9999 4.26944 10.8416 4.27499 10.6582C4.28055 10.4749 4.34999 10.3166 4.48332 10.1832C4.61666 10.0499 4.77499 9.98324 4.95832 9.98324C5.14166 9.98324 5.29999 10.0499 5.43332 10.1832L7.99999 12.7666ZM7.99999 3.23324L5.43332 5.7999C5.29999 5.93324 5.14444 5.99713 4.96666 5.99157C4.78888 5.98601 4.63332 5.92212 4.49999 5.7999C4.36666 5.66657 4.29721 5.50824 4.29166 5.3249C4.2861 5.14157 4.34999 4.98324 4.48332 4.8499L7.04999 2.28324C7.30555 2.02768 7.62221 1.8999 7.99999 1.8999C8.37777 1.8999 8.69444 2.02768 8.94999 2.28324L11.5167 4.8499C11.65 4.98324 11.7139 5.14157 11.7083 5.3249C11.7028 5.50824 11.6333 5.66657 11.5 5.7999C11.3667 5.92212 11.2111 5.98601 11.0333 5.99157C10.8555 5.99713 10.7 5.93324 10.5667 5.7999L7.99999 3.23324Z" fill="#ACB1B9"/>
</g>
</g>
</svg>
