<svg width="88" height="88" viewBox="0 0 88 88" fill="none" xmlns="http://www.w3.org/2000/svg">
<g id="Media">
<path d="M0.785714 44C0.785714 20.1334 20.1334 0.785714 44 0.785714C67.8666 0.785714 87.2143 20.1334 87.2143 44C87.2143 67.8666 67.8666 87.2143 44 87.2143C20.1334 87.2143 0.785714 67.8666 0.785714 44Z" fill="white"/>
<path d="M0.785714 44C0.785714 20.1334 20.1334 0.785714 44 0.785714C67.8666 0.785714 87.2143 20.1334 87.2143 44C87.2143 67.8666 67.8666 87.2143 44 87.2143C20.1334 87.2143 0.785714 67.8666 0.785714 44Z" stroke="#F1F2F4" stroke-width="1.57143"/>
<g id="add">
<mask id="mask0_2116_21137" style="mask-type:alpha" maskUnits="userSpaceOnUse" x="28" y="28" width="32" height="32">
<rect id="Bounding box" x="28.0001" y="28" width="31.9999" height="32" fill="#D9D9D9"/>
</mask>
<g mask="url(#mask0_2116_21137)">
<path id="add_2" d="M42.6667 45.3329H36.0001C35.6223 45.3329 35.3056 45.2051 35.0501 44.9496C34.7945 44.694 34.6667 44.3774 34.6667 43.9996C34.6667 43.6218 34.7945 43.3051 35.0501 43.0496C35.3056 42.794 35.6223 42.6663 36.0001 42.6663H42.6667V35.9996C42.6667 35.6218 42.7945 35.3051 43.0501 35.0496C43.3056 34.794 43.6223 34.6663 44.0001 34.6663C44.3778 34.6663 44.6945 34.794 44.9501 35.0496C45.2056 35.3051 45.3334 35.6218 45.3334 35.9996V42.6663H52.0001C52.3778 42.6663 52.6945 42.794 52.9501 43.0496C53.2056 43.3051 53.3334 43.6218 53.3334 43.9996C53.3334 44.3774 53.2056 44.694 52.9501 44.9496C52.6945 45.2051 52.3778 45.3329 52.0001 45.3329H45.3334V51.9996C45.3334 52.3774 45.2056 52.694 44.9501 52.9496C44.6945 53.2051 44.3778 53.3329 44.0001 53.3329C43.6223 53.3329 43.3056 53.2051 43.0501 52.9496C42.7945 52.694 42.6667 52.3774 42.6667 51.9996V45.3329Z" fill="#89909A"/>
</g>
</g>
</g>
</svg>
