<svg width="88" height="88" viewBox="0 0 88 88" fill="none" xmlns="http://www.w3.org/2000/svg">
<g id="Media">
<path d="M0.785714 44C0.785714 20.1334 20.1334 0.785714 44 0.785714C67.8666 0.785714 87.2143 20.1334 87.2143 44C87.2143 67.8666 67.8666 87.2143 44 87.2143C20.1334 87.2143 0.785714 67.8666 0.785714 44Z" fill="#F9FAFB"/>
<path d="M0.785714 44C0.785714 20.1334 20.1334 0.785714 44 0.785714C67.8666 0.785714 87.2143 20.1334 87.2143 44C87.2143 67.8666 67.8666 87.2143 44 87.2143C20.1334 87.2143 0.785714 67.8666 0.785714 44Z" stroke="#F1F2F4" stroke-width="1.57143"/>
<g id="add">
<mask id="mask0_1210_6034" style="mask-type:alpha" maskUnits="userSpaceOnUse" x="28" y="28" width="32" height="32">
<rect id="Bounding box" x="28.0001" y="28" width="31.9999" height="32" fill="#D9D9D9"/>
</mask>
<g mask="url(#mask0_1210_6034)">
<path id="add_2" d="M42.6667 45.3327H36.0001C35.6223 45.3327 35.3056 45.2049 35.0501 44.9493C34.7945 44.6938 34.6667 44.3771 34.6667 43.9993C34.6667 43.6216 34.7945 43.3049 35.0501 43.0493C35.3056 42.7938 35.6223 42.666 36.0001 42.666H42.6667V35.9993C42.6667 35.6216 42.7945 35.3049 43.0501 35.0493C43.3056 34.7938 43.6223 34.666 44.0001 34.666C44.3778 34.666 44.6945 34.7938 44.9501 35.0493C45.2056 35.3049 45.3334 35.6216 45.3334 35.9993V42.666H52.0001C52.3778 42.666 52.6945 42.7938 52.9501 43.0493C53.2056 43.3049 53.3334 43.6216 53.3334 43.9993C53.3334 44.3771 53.2056 44.6938 52.9501 44.9493C52.6945 45.2049 52.3778 45.3327 52.0001 45.3327H45.3334V51.9993C45.3334 52.3771 45.2056 52.6938 44.9501 52.9493C44.6945 53.2049 44.3778 53.3327 44.0001 53.3327C43.6223 53.3327 43.3056 53.2049 43.0501 52.9493C42.7945 52.6938 42.6667 52.3771 42.6667 51.9993V45.3327Z" fill="#89909A"/>
</g>
</g>
</g>
</svg>
