<svg width="48" height="48" viewBox="0 0 48 48" fill="none" xmlns="http://www.w3.org/2000/svg">
<g id="Group 427319298">
<g id="Ellipse 80" filter="url(#filter0_d_1717_4677)">
<circle cx="24" cy="22" r="20" fill="white"/>
</g>
<g id="fingerprint">
<mask id="mask0_1717_4677" style="mask-type:alpha" maskUnits="userSpaceOnUse" x="12" y="10" width="24" height="24">
<rect id="Bounding box" x="12" y="10" width="24" height="24" fill="#D9D9D9"/>
</mask>
<g mask="url(#mask0_1717_4677)">
<path id="fingerprint_2" d="M15.25 19.6499C15.1333 19.5666 15.0625 19.4624 15.0375 19.3374C15.0125 19.2124 15.05 19.0832 15.15 18.9499C16.1833 17.5332 17.4792 16.4332 19.0375 15.6499C20.5958 14.8666 22.2583 14.4749 24.025 14.4749C25.7917 14.4749 27.4583 14.8541 29.025 15.6124C30.5917 16.3707 31.9 17.4666 32.95 18.8999C33.0667 19.0499 33.1042 19.1832 33.0625 19.2999C33.0208 19.4166 32.95 19.5166 32.85 19.5999C32.75 19.6832 32.6333 19.7207 32.5 19.7124C32.3667 19.7041 32.25 19.6332 32.15 19.4999C31.2333 18.1999 30.0542 17.2041 28.6125 16.5124C27.1708 15.8207 25.6417 15.4749 24.025 15.4749C22.4083 15.4749 20.8917 15.8207 19.475 16.5124C18.0583 17.2041 16.8833 18.1999 15.95 19.4999C15.85 19.6499 15.7333 19.7332 15.6 19.7499C15.4667 19.7666 15.35 19.7332 15.25 19.6499ZM26.85 31.9749C25.1167 31.5416 23.7 30.6791 22.6 29.3874C21.5 28.0957 20.95 26.5166 20.95 24.6499C20.95 23.8166 21.25 23.1166 21.85 22.5499C22.45 21.9832 23.175 21.6999 24.025 21.6999C24.875 21.6999 25.6 21.9832 26.2 22.5499C26.8 23.1166 27.1 23.8166 27.1 24.6499C27.1 25.1999 27.3083 25.6624 27.725 26.0374C28.1417 26.4124 28.6333 26.5999 29.2 26.5999C29.7667 26.5999 30.25 26.4124 30.65 26.0374C31.05 25.6624 31.25 25.1999 31.25 24.6499C31.25 22.7166 30.5417 21.0916 29.125 19.7749C27.7083 18.4582 26.0167 17.7999 24.05 17.7999C22.0833 17.7999 20.3917 18.4582 18.975 19.7749C17.5583 21.0916 16.85 22.7082 16.85 24.6249C16.85 25.0249 16.8875 25.5249 16.9625 26.1249C17.0375 26.7249 17.2167 27.4249 17.5 28.2249C17.55 28.3749 17.5458 28.5082 17.4875 28.6249C17.4292 28.7416 17.3333 28.8249 17.2 28.8749C17.0667 28.9249 16.9375 28.9207 16.8125 28.8624C16.6875 28.8041 16.6 28.7082 16.55 28.5749C16.3 27.9249 16.1208 27.2791 16.0125 26.6374C15.9042 25.9957 15.85 25.3332 15.85 24.6499C15.85 22.4332 16.6542 20.5749 18.2625 19.0749C19.8708 17.5749 21.7917 16.8249 24.025 16.8249C26.275 16.8249 28.2083 17.5749 29.825 19.0749C31.4417 20.5749 32.25 22.4332 32.25 24.6499C32.25 25.4832 31.9542 26.1791 31.3625 26.7374C30.7708 27.2957 30.05 27.5749 29.2 27.5749C28.35 27.5749 27.6208 27.2957 27.0125 26.7374C26.4042 26.1791 26.1 25.4832 26.1 24.6499C26.1 24.0999 25.8958 23.6374 25.4875 23.2624C25.0792 22.8874 24.5917 22.6999 24.025 22.6999C23.4583 22.6999 22.9708 22.8874 22.5625 23.2624C22.1542 23.6374 21.95 24.0999 21.95 24.6499C21.95 26.2666 22.4292 27.6166 23.3875 28.6999C24.3458 29.7832 25.5833 30.5416 27.1 30.9749C27.25 31.0249 27.35 31.1082 27.4 31.2249C27.45 31.3416 27.4583 31.4666 27.425 31.5999C27.3917 31.7166 27.325 31.8166 27.225 31.8999C27.125 31.9832 27 32.0082 26.85 31.9749ZM18.5 14.4249C18.3667 14.5082 18.2333 14.5291 18.1 14.4874C17.9667 14.4457 17.8667 14.3582 17.8 14.2249C17.7333 14.0916 17.7167 13.9707 17.75 13.8624C17.7833 13.7541 17.8667 13.6582 18 13.5749C18.9333 13.0749 19.9083 12.6916 20.925 12.4249C21.9417 12.1582 22.975 12.0249 24.025 12.0249C25.0917 12.0249 26.1333 12.1541 27.15 12.4124C28.1667 12.6707 29.15 13.0416 30.1 13.5249C30.25 13.6082 30.3375 13.7082 30.3625 13.8249C30.3875 13.9416 30.375 14.0582 30.325 14.1749C30.275 14.2916 30.1917 14.3832 30.075 14.4499C29.9583 14.5166 29.8167 14.5082 29.65 14.4249C28.7667 13.9749 27.8542 13.6291 26.9125 13.3874C25.9708 13.1457 25.0083 13.0249 24.025 13.0249C23.0583 13.0249 22.1083 13.1374 21.175 13.3624C20.2417 13.5874 19.35 13.9416 18.5 14.4249ZM21.45 31.6249C20.4667 30.5916 19.7125 29.5374 19.1875 28.4624C18.6625 27.3874 18.4 26.1166 18.4 24.6499C18.4 23.1332 18.95 21.8541 20.05 20.8124C21.15 19.7707 22.475 19.2499 24.025 19.2499C25.575 19.2499 26.9083 19.7707 28.025 20.8124C29.1417 21.8541 29.7 23.1332 29.7 24.6499C29.7 24.7999 29.6542 24.9207 29.5625 25.0124C29.4708 25.1041 29.35 25.1499 29.2 25.1499C29.0667 25.1499 28.95 25.1041 28.85 25.0124C28.75 24.9207 28.7 24.7999 28.7 24.6499C28.7 23.3999 28.2375 22.3541 27.3125 21.5124C26.3875 20.6707 25.2917 20.2499 24.025 20.2499C22.7583 20.2499 21.6708 20.6707 20.7625 21.5124C19.8542 22.3541 19.4 23.3999 19.4 24.6499C19.4 25.9999 19.6333 27.1457 20.1 28.0874C20.5667 29.0291 21.25 29.9749 22.15 30.9249C22.25 31.0249 22.3 31.1416 22.3 31.2749C22.3 31.4082 22.25 31.5249 22.15 31.6249C22.05 31.7249 21.9333 31.7749 21.8 31.7749C21.6667 31.7749 21.55 31.7249 21.45 31.6249ZM29 29.9249C27.5167 29.9249 26.2292 29.4249 25.1375 28.4249C24.0458 27.4249 23.5 26.1666 23.5 24.6499C23.5 24.5166 23.5458 24.3999 23.6375 24.2999C23.7292 24.1999 23.85 24.1499 24 24.1499C24.15 24.1499 24.2708 24.1999 24.3625 24.2999C24.4542 24.3999 24.5 24.5166 24.5 24.6499C24.5 25.8999 24.95 26.9249 25.85 27.7249C26.75 28.5249 27.8 28.9249 29 28.9249C29.1 28.9249 29.2417 28.9166 29.425 28.8999C29.6083 28.8832 29.8 28.8582 30 28.8249C30.15 28.7916 30.2792 28.8124 30.3875 28.8874C30.4958 28.9624 30.5667 29.0749 30.6 29.2249C30.6333 29.3582 30.6083 29.4749 30.525 29.5749C30.4417 29.6749 30.3333 29.7416 30.2 29.7749C29.9 29.8582 29.6375 29.9041 29.4125 29.9124C29.1875 29.9207 29.05 29.9249 29 29.9249Z" fill="#3044FE"/>
</g>
</g>
</g>
<defs>
<filter id="filter0_d_1717_4677" x="0" y="0" width="48" height="48" filterUnits="userSpaceOnUse" color-interpolation-filters="sRGB">
<feFlood flood-opacity="0" result="BackgroundImageFix"/>
<feColorMatrix in="SourceAlpha" type="matrix" values="0 0 0 0 0 0 0 0 0 0 0 0 0 0 0 0 0 0 127 0" result="hardAlpha"/>
<feOffset dy="2"/>
<feGaussianBlur stdDeviation="2"/>
<feComposite in2="hardAlpha" operator="out"/>
<feColorMatrix type="matrix" values="0 0 0 0 0 0 0 0 0 0 0 0 0 0 0 0 0 0 0.04 0"/>
<feBlend mode="normal" in2="BackgroundImageFix" result="effect1_dropShadow_1717_4677"/>
<feBlend mode="normal" in="SourceGraphic" in2="effect1_dropShadow_1717_4677" result="shape"/>
</filter>
</defs>
</svg>
